<svg width="66" height="10" viewBox="0 0 66 10" fill="none" xmlns="http://www.w3.org/2000/svg">
<path d="M60.0247 0.0342683C58.2949 0.469476 57.3636 1.21908 56.8924 2.57677C56.6051 3.82796 56.5358 5.12025 56.6878 6.39551C57.0257 8.7451 58.6328 10 61.3044 10C63.9761 10 65.5832 8.74377 65.9211 6.39551C66.0731 5.12025 66.0038 3.82796 65.7165 2.57677C65.5212 2.02275 65.2013 1.52216 64.7821 1.11444C64.363 0.706715 63.8559 0.402985 63.3009 0.227176C62.222 0.0173082 61.1204 -0.0475556 60.0247 0.0342683ZM62.5736 1.83651C63.0775 2.04496 63.4839 2.43975 63.7101 2.94055C63.8855 3.6659 63.9302 4.41726 63.8421 5.15865C63.8111 6.90081 63.8111 6.93085 63.5247 7.33602C63.3283 7.59581 63.0851 7.81572 62.8079 7.98416C62.4291 8.19709 62.2548 8.22713 61.2899 8.22713C60.2663 8.22713 60.1844 8.2071 59.7139 7.92342C59.4084 7.74192 59.1545 7.48371 58.9767 7.17382C58.7615 6.75863 58.741 6.61646 58.741 4.99645C58.741 3.39445 58.7615 3.22424 58.9767 2.80839C59.1338 2.52444 59.3496 2.27799 59.6092 2.08578C59.8688 1.89356 60.1663 1.76006 60.4814 1.69433C61.1805 1.59048 61.8934 1.63919 62.5723 1.83718L62.5736 1.83651Z" fill="black"/>
<path d="M14.5862 0.149014C14.0951 0.242463 13.8602 1.11154 14.1974 1.59815C14.3563 1.7523 14.5557 1.85678 14.7718 1.89906C14.988 1.94133 15.2116 1.91959 15.4158 1.83645C15.5981 1.79901 15.7593 1.69218 15.866 1.53804C15.9727 1.38389 16.0169 1.19418 15.9893 1.00808C16.0172 0.830677 15.9793 0.649104 15.883 0.498198C15.7866 0.347292 15.6386 0.237681 15.4672 0.190396C15.1866 0.076366 14.876 0.0617818 14.5862 0.149014Z" fill="#178FAC"/>
<path d="M24.3094 0.259278C23.7083 0.40186 23.163 0.72259 22.7432 1.18042C22.3637 1.64534 22.1255 2.21151 22.0575 2.81045C22.1102 3.46483 22.3978 4.07712 22.866 4.53193C23.3365 4.99918 23.7358 5.19008 25.5059 5.84823C26.591 6.2534 26.9698 6.58715 26.9698 7.16454C26.9698 8.29928 25.1878 8.74384 23.4897 8.02494C22.2509 7.5083 21.8516 7.58973 21.8516 8.33866C21.8516 8.94608 22.0152 9.17904 22.6191 9.45272C24.5027 10.3031 27.1434 10.0401 28.3102 8.88601C28.6911 8.51867 28.9497 8.04084 29.0506 7.51847C29.1514 6.9961 29.0894 6.45495 28.8732 5.96972C28.4845 5.2308 27.911 4.85566 26.1712 4.2182C24.8816 3.74228 24.4513 3.49931 24.2467 3.09414C23.6322 1.91934 25.5469 1.15039 27.2457 1.89932C27.8291 2.1523 28.2284 2.18301 28.464 1.99077C28.7201 1.77784 28.6073 0.917431 28.2898 0.674462C27.6054 0.147807 25.3634 -0.0851505 24.3094 0.259278Z" fill="black"/>
<path d="M35.2317 0.228624L34.9961 0.390823V9.76783L35.2522 9.8793C35.7 10.0382 36.1886 10.0346 36.6342 9.86928L36.8903 9.73578L36.9418 7.54839L36.9932 5.35099L38.7844 7.56909C40.7598 10.0195 40.8113 10.0602 41.8349 9.97942C42.4289 9.92869 42.6929 9.73645 42.6025 9.41205C42.582 9.3206 41.7326 8.23725 40.7189 7.00906C39.7157 5.78353 38.8867 4.73957 38.8867 4.69017C39.3952 4.07801 39.9349 3.49315 40.5037 2.93799C42.0593 1.32799 42.6738 0.629123 42.6738 0.468256C42.6427 0.376222 42.5858 0.295294 42.5101 0.235295C41.9215 0.0315078 41.2848 0.0172846 40.6879 0.19458C39.9909 0.80516 39.3376 1.46497 38.733 2.16904C37.8017 3.18163 36.9926 4.02201 36.9418 4.02201C36.8302 3.42473 36.7958 2.81532 36.8395 2.20908C36.8395 0.143181 36.85 0.163207 35.99 0.102465C35.7305 0.0487794 35.4605 0.093695 35.2317 0.228624Z" fill="black"/>
<path d="M48.9163 0.288451L48.6523 0.488703V5.08576C48.6523 8.72094 48.6834 9.69148 48.7844 9.77425C48.9871 9.88439 49.2111 9.94866 49.4408 9.9626C49.6706 9.97655 49.9006 9.93984 50.1149 9.85502L50.4937 9.70283V0.491371L50.2297 0.29112C50.0391 0.151621 49.8096 0.0770484 49.5744 0.0781881C49.3385 0.0756568 49.108 0.149318 48.9163 0.288451Z" fill="black"/>
<path d="M0.196814 0.279715C0.0648155 0.360482 0.0430361 1.00862 0.0126765 4.89546C-0.0183432 10.1687 -0.0691633 9.89568 0.903006 9.89568C1.827 9.89568 1.83426 9.86564 1.83426 7.78038C1.80713 7.13065 1.84139 6.47978 1.93656 5.83663C2.03885 5.6544 2.17217 5.64439 3.7687 5.64439C5.24246 5.64439 5.519 5.66441 5.63185 5.8166C5.74471 5.93809 5.78563 6.44405 5.80609 7.81042C5.83711 9.9157 5.83711 9.89568 6.70698 9.89568C7.61777 9.89568 7.56497 10.2094 7.56497 5.03697C7.56497 1.04867 7.54451 0.481969 7.4013 0.34046C7.17332 0.23838 6.92755 0.183152 6.67829 0.177996C6.42902 0.172839 6.18123 0.217853 5.94931 0.310419C5.83729 0.886824 5.78925 1.47408 5.80609 2.06126C5.78563 3.25542 5.73415 3.73001 5.63185 3.85283C5.519 4.00435 5.24312 4.02504 3.7687 4.02504C2.17217 4.02504 2.03885 4.01503 1.93656 3.8328C1.84315 3.24732 1.80887 2.65376 1.83426 2.06126C1.83426 0.20896 1.8237 0.178256 0.933369 0.178256C0.683907 0.168924 0.434722 0.203249 0.196814 0.279715Z" fill="#178FAC"/>
<path d="M14.2116 2.60853C14.0684 2.74203 14.0479 3.21929 14.0479 6.22169C14.0479 10.1866 13.976 9.90694 15.0379 9.90694C16.0279 9.90694 15.9896 10.0832 15.9896 6.16896C15.9896 2.23473 16.0411 2.44232 14.9864 2.44232C14.5594 2.44299 14.3238 2.49439 14.2116 2.60853Z" fill="#178FAC"/>
</svg>
